<svg xmlns="http://www.w3.org/2000/svg" viewBox="0 0 1000 1250" width="1000" height="1250">
  <defs>
    <linearGradient id="bg" x1="0.1" y1="0" x2="0.9" y2="1"><stop offset="0" stop-color="#c2ac88"/><stop offset="1" stop-color="#a68c63"/></linearGradient>
    
    <radialGradient id="light" cx="0.5" cy="0.32" r="0.85">
      <stop offset="0" stop-color="rgba(255,255,255,0.16)"/>
      <stop offset="0.55" stop-color="rgba(255,255,255,0)"/>
    </radialGradient>
    <radialGradient id="vig" cx="0.5" cy="0.46" r="0.78">
      <stop offset="0.46" stop-color="rgba(0,0,0,0)"/>
      <stop offset="1" stop-color="rgba(0,0,0,0.4)"/>
    </radialGradient>
    <linearGradient id="glass" x1="0" y1="0" x2="1" y2="0">
      <stop offset="0" stop-color="rgba(255,255,255,0.06)"/>
      <stop offset="0.22" stop-color="rgba(255,255,255,0.42)"/>
      <stop offset="0.5" stop-color="rgba(255,255,255,0.12)"/>
      <stop offset="0.8" stop-color="rgba(0,0,0,0.06)"/>
      <stop offset="1" stop-color="rgba(0,0,0,0.22)"/>
    </linearGradient>
    <linearGradient id="metal" x1="0" y1="0" x2="1" y2="0">
      <stop offset="0" stop-color="rgba(255,255,255,0.04)"/>
      <stop offset="0.42" stop-color="rgba(255,255,255,0.62)"/>
      <stop offset="0.62" stop-color="rgba(255,255,255,0.2)"/>
      <stop offset="1" stop-color="rgba(0,0,0,0.34)"/>
    </linearGradient>
    <filter id="grain">
      <feTurbulence type="fractalNoise" baseFrequency="0.9" numOctaves="2" stitchTiles="stitch" seed="3"/>
      <feColorMatrix type="matrix" values="0 0 0 0 0  0 0 0 0 0  0 0 0 0 0  0 0 0 0.05 0"/>
    </filter>
    <filter id="soft"><feGaussianBlur stdDeviation="7"/></filter>
  </defs>
  <rect width="1000" height="1250" fill="url(#bg)"/>
  <rect width="1000" height="1250" fill="url(#light)"/>
  <circle cx="500" cy="625" r="360" fill="none" stroke="rgba(255,255,255,0.07)" stroke-width="1.5"/>
  <ellipse cx="530" cy="975" rx="200" ry="37.5" fill="rgba(0,0,0,0.34)" filter="url(#soft)"/>
  <g transform="rotate(24 500 625)">
    <!-- handle -->
    <rect x="488" y="274.99999999999994" width="24" height="525" rx="12" fill="url(#metal)"/>
    <rect x="497" y="300" width="3" height="475" rx="1.5" fill="rgba(255,255,255,0.5)"/>
    <!-- knurling -->
    <rect x="488" y="500" width="24" height="1.4" fill="rgba(0,0,0,0.18)"/><rect x="488" y="506" width="24" height="1.4" fill="rgba(0,0,0,0.18)"/><rect x="488" y="512" width="24" height="1.4" fill="rgba(0,0,0,0.18)"/><rect x="488" y="518" width="24" height="1.4" fill="rgba(0,0,0,0.18)"/><rect x="488" y="524" width="24" height="1.4" fill="rgba(0,0,0,0.18)"/><rect x="488" y="530" width="24" height="1.4" fill="rgba(0,0,0,0.18)"/><rect x="488" y="536" width="24" height="1.4" fill="rgba(0,0,0,0.18)"/><rect x="488" y="542" width="24" height="1.4" fill="rgba(0,0,0,0.18)"/><rect x="488" y="548" width="24" height="1.4" fill="rgba(0,0,0,0.18)"/><rect x="488" y="554" width="24" height="1.4" fill="rgba(0,0,0,0.18)"/>
    <!-- head -->
    <rect x="482" y="775" width="36" height="15" rx="5" fill="rgba(255,255,255,0.5)"/>
    <rect x="468" y="837.5" width="64" height="11" rx="5" fill="rgba(255,255,255,0.9)"/>
    <rect x="464" y="918.75" width="72" height="2.5" fill="rgba(255,255,255,0.65)"/>
  </g>
  <rect width="1000" height="1250" fill="url(#vig)"/>
  <rect width="1000" height="1250" filter="url(#grain)"/>
</svg>